<mxfile host="app.diagrams.net" modified="2022-10-08T19:01:43.032Z" agent="5.0 (Windows NT 10.0; Win64; x64) AppleWebKit/537.36 (KHTML, like Gecko) Chrome/106.0.0.0 Safari/537.36" etag="8nwPP7ahGMfW6wT30n8Z" version="20.3.7" type="github">
  <diagram id="fekZhN-9DIX1WIRX_lU1" name="Page-1">
    <mxGraphModel dx="1185" dy="1735" grid="1" gridSize="10" guides="1" tooltips="1" connect="1" arrows="1" fold="1" page="1" pageScale="1" pageWidth="850" pageHeight="1100" math="0" shadow="0">
      <root>
        <mxCell id="0" />
        <mxCell id="1" parent="0" />
        <mxCell id="9bxA_ej-zrlDuutFUla0-30" value="Alt" style="shape=umlFrame;whiteSpace=wrap;html=1;width=60;height=30;boundedLbl=1;verticalAlign=middle;align=left;spacingLeft=5;" vertex="1" parent="1">
          <mxGeometry x="70" y="150" width="740" height="410" as="geometry" />
        </mxCell>
        <mxCell id="9bxA_ej-zrlDuutFUla0-39" value="Company Is &#xa;Not In &#xa;Database" style="fontStyle=0;dashed=1;align=left;" vertex="1" parent="1">
          <mxGeometry x="70" y="660" width="580" height="320" as="geometry" />
        </mxCell>
        <mxCell id="9bxA_ej-zrlDuutFUla0-35" value="Company In &lt;br&gt;Database" style="html=1;align=left;verticalAlign=middle;rounded=1;absoluteArcSize=1;arcSize=10;dashed=1;" vertex="1" parent="1">
          <mxGeometry x="120" y="-40" width="340" height="90" as="geometry" />
        </mxCell>
        <mxCell id="9bxA_ej-zrlDuutFUla0-1" value=":Object" style="shape=umlLifeline;perimeter=lifelinePerimeter;container=1;collapsible=0;recursiveResize=0;rounded=0;shadow=0;strokeWidth=1;" vertex="1" parent="1">
          <mxGeometry x="140" y="760" width="100" height="300" as="geometry" />
        </mxCell>
        <mxCell id="9bxA_ej-zrlDuutFUla0-2" value="" style="points=[];perimeter=orthogonalPerimeter;rounded=0;shadow=0;strokeWidth=1;" vertex="1" parent="9bxA_ej-zrlDuutFUla0-1">
          <mxGeometry x="45" y="70" width="10" height="190" as="geometry" />
        </mxCell>
        <mxCell id="9bxA_ej-zrlDuutFUla0-3" value="dispatch" style="verticalAlign=bottom;startArrow=oval;endArrow=block;startSize=8;shadow=0;strokeWidth=1;" edge="1" parent="9bxA_ej-zrlDuutFUla0-1" target="9bxA_ej-zrlDuutFUla0-2">
          <mxGeometry relative="1" as="geometry">
            <mxPoint x="-15" y="70" as="sourcePoint" />
          </mxGeometry>
        </mxCell>
        <mxCell id="9bxA_ej-zrlDuutFUla0-4" value="" style="points=[];perimeter=orthogonalPerimeter;rounded=0;shadow=0;strokeWidth=1;" vertex="1" parent="9bxA_ej-zrlDuutFUla0-1">
          <mxGeometry x="50" y="120" width="10" height="80" as="geometry" />
        </mxCell>
        <mxCell id="9bxA_ej-zrlDuutFUla0-5" value=":Object" style="shape=umlLifeline;perimeter=lifelinePerimeter;container=1;collapsible=0;recursiveResize=0;rounded=0;shadow=0;strokeWidth=1;" vertex="1" parent="1">
          <mxGeometry x="320" y="760" width="100" height="300" as="geometry" />
        </mxCell>
        <mxCell id="9bxA_ej-zrlDuutFUla0-6" value="" style="points=[];perimeter=orthogonalPerimeter;rounded=0;shadow=0;strokeWidth=1;" vertex="1" parent="9bxA_ej-zrlDuutFUla0-5">
          <mxGeometry x="45" y="80" width="10" height="160" as="geometry" />
        </mxCell>
        <mxCell id="9bxA_ej-zrlDuutFUla0-7" value="return" style="verticalAlign=bottom;endArrow=open;dashed=1;endSize=8;exitX=0;exitY=0.95;shadow=0;strokeWidth=1;" edge="1" parent="1" source="9bxA_ej-zrlDuutFUla0-6" target="9bxA_ej-zrlDuutFUla0-2">
          <mxGeometry relative="1" as="geometry">
            <mxPoint x="295" y="916" as="targetPoint" />
          </mxGeometry>
        </mxCell>
        <mxCell id="9bxA_ej-zrlDuutFUla0-8" value="dispatch" style="verticalAlign=bottom;endArrow=block;entryX=0;entryY=0;shadow=0;strokeWidth=1;" edge="1" parent="1" source="9bxA_ej-zrlDuutFUla0-2" target="9bxA_ej-zrlDuutFUla0-6">
          <mxGeometry relative="1" as="geometry">
            <mxPoint x="295" y="840" as="sourcePoint" />
          </mxGeometry>
        </mxCell>
        <mxCell id="9bxA_ej-zrlDuutFUla0-9" value="callback" style="verticalAlign=bottom;endArrow=block;entryX=1;entryY=0;shadow=0;strokeWidth=1;" edge="1" parent="1" source="9bxA_ej-zrlDuutFUla0-6" target="9bxA_ej-zrlDuutFUla0-4">
          <mxGeometry relative="1" as="geometry">
            <mxPoint x="260" y="880" as="sourcePoint" />
          </mxGeometry>
        </mxCell>
        <mxCell id="9bxA_ej-zrlDuutFUla0-10" value="return" style="verticalAlign=bottom;endArrow=open;dashed=1;endSize=8;exitX=1;exitY=0.95;shadow=0;strokeWidth=1;" edge="1" parent="1" source="9bxA_ej-zrlDuutFUla0-4" target="9bxA_ej-zrlDuutFUla0-6">
          <mxGeometry relative="1" as="geometry">
            <mxPoint x="260" y="937" as="targetPoint" />
          </mxGeometry>
        </mxCell>
        <mxCell id="9bxA_ej-zrlDuutFUla0-11" value="&amp;laquo;interface&amp;raquo;&lt;br&gt;&lt;b&gt;Name&lt;/b&gt;" style="html=1;" vertex="1" parent="1">
          <mxGeometry x="220" y="890" width="110" height="50" as="geometry" />
        </mxCell>
        <mxCell id="9bxA_ej-zrlDuutFUla0-12" value=":Interface" style="shape=umlLifeline;perimeter=lifelinePerimeter;container=1;collapsible=0;recursiveResize=0;rounded=0;shadow=0;strokeWidth=1;" vertex="1" parent="1">
          <mxGeometry x="100" y="70" width="100" height="540" as="geometry" />
        </mxCell>
        <mxCell id="9bxA_ej-zrlDuutFUla0-13" value="" style="points=[];perimeter=orthogonalPerimeter;rounded=0;shadow=0;strokeWidth=1;" vertex="1" parent="9bxA_ej-zrlDuutFUla0-12">
          <mxGeometry x="45" y="70" width="10" height="430" as="geometry" />
        </mxCell>
        <mxCell id="9bxA_ej-zrlDuutFUla0-14" value="AddCompany(twitter_handle)" style="verticalAlign=bottom;startArrow=oval;endArrow=block;startSize=8;shadow=0;strokeWidth=1;" edge="1" parent="9bxA_ej-zrlDuutFUla0-12" target="9bxA_ej-zrlDuutFUla0-13">
          <mxGeometry relative="1" as="geometry">
            <mxPoint x="-50" y="70" as="sourcePoint" />
          </mxGeometry>
        </mxCell>
        <mxCell id="9bxA_ej-zrlDuutFUla0-20" value=":Database" style="shape=umlLifeline;perimeter=lifelinePerimeter;container=1;collapsible=0;recursiveResize=0;rounded=0;shadow=0;strokeWidth=1;" vertex="1" parent="1">
          <mxGeometry x="570" y="70" width="100" height="540" as="geometry" />
        </mxCell>
        <mxCell id="9bxA_ej-zrlDuutFUla0-21" value="" style="points=[];perimeter=orthogonalPerimeter;rounded=0;shadow=0;strokeWidth=1;" vertex="1" parent="9bxA_ej-zrlDuutFUla0-20">
          <mxGeometry x="45" y="80" width="10" height="420" as="geometry" />
        </mxCell>
        <mxCell id="9bxA_ej-zrlDuutFUla0-29" value="AddCompany(twitter_handle)" style="edgeStyle=orthogonalEdgeStyle;rounded=0;orthogonalLoop=1;jettySize=auto;html=1;startArrow=none;startFill=0;endArrow=classic;endFill=1;labelPosition=center;verticalLabelPosition=top;align=center;verticalAlign=bottom;" edge="1" parent="1" source="9bxA_ej-zrlDuutFUla0-13" target="9bxA_ej-zrlDuutFUla0-41">
          <mxGeometry relative="1" as="geometry">
            <mxPoint x="300" y="140" as="targetPoint" />
            <Array as="points">
              <mxPoint x="240" y="140" />
              <mxPoint x="240" y="140" />
            </Array>
          </mxGeometry>
        </mxCell>
        <mxCell id="9bxA_ej-zrlDuutFUla0-37" value="COMPANY_EXISTS" style="edgeStyle=orthogonalEdgeStyle;rounded=0;orthogonalLoop=1;jettySize=auto;html=1;startArrow=none;startFill=0;endArrow=classic;endFill=1;dashed=1;labelPosition=center;verticalLabelPosition=top;align=center;verticalAlign=bottom;" edge="1" parent="1" source="9bxA_ej-zrlDuutFUla0-41" target="9bxA_ej-zrlDuutFUla0-13">
          <mxGeometry relative="1" as="geometry">
            <Array as="points">
              <mxPoint x="250" y="200" />
              <mxPoint x="250" y="200" />
            </Array>
          </mxGeometry>
        </mxCell>
        <mxCell id="9bxA_ej-zrlDuutFUla0-38" value="Display_error(exists)" style="edgeStyle=orthogonalEdgeStyle;rounded=0;orthogonalLoop=1;jettySize=auto;html=1;dashed=1;startArrow=none;startFill=0;endArrow=classic;endFill=1;labelPosition=center;verticalLabelPosition=bottom;align=center;verticalAlign=top;exitX=-0.2;exitY=0.162;exitDx=0;exitDy=0;exitPerimeter=0;" edge="1" parent="1" source="9bxA_ej-zrlDuutFUla0-13">
          <mxGeometry relative="1" as="geometry">
            <mxPoint x="40" y="209" as="targetPoint" />
            <Array as="points">
              <mxPoint x="91" y="210" />
            </Array>
          </mxGeometry>
        </mxCell>
        <mxCell id="9bxA_ej-zrlDuutFUla0-40" value=":Backend" style="shape=umlLifeline;perimeter=lifelinePerimeter;container=1;collapsible=0;recursiveResize=0;rounded=0;shadow=0;strokeWidth=1;" vertex="1" parent="1">
          <mxGeometry x="230" y="70" width="100" height="540" as="geometry" />
        </mxCell>
        <mxCell id="9bxA_ej-zrlDuutFUla0-41" value="" style="points=[];perimeter=orthogonalPerimeter;rounded=0;shadow=0;strokeWidth=1;" vertex="1" parent="9bxA_ej-zrlDuutFUla0-40">
          <mxGeometry x="45" y="70" width="10" height="430" as="geometry" />
        </mxCell>
        <mxCell id="9bxA_ej-zrlDuutFUla0-43" value=":Twitter" style="shape=umlLifeline;perimeter=lifelinePerimeter;container=1;collapsible=0;recursiveResize=0;rounded=0;shadow=0;strokeWidth=1;" vertex="1" parent="1">
          <mxGeometry x="700" y="70" width="100" height="540" as="geometry" />
        </mxCell>
        <mxCell id="9bxA_ej-zrlDuutFUla0-44" value="" style="points=[];perimeter=orthogonalPerimeter;rounded=0;shadow=0;strokeWidth=1;" vertex="1" parent="9bxA_ej-zrlDuutFUla0-43">
          <mxGeometry x="45" y="70" width="10" height="430" as="geometry" />
        </mxCell>
        <mxCell id="9bxA_ej-zrlDuutFUla0-45" value="API_CALL for twitter_handle" style="edgeStyle=orthogonalEdgeStyle;rounded=0;orthogonalLoop=1;jettySize=auto;html=1;startArrow=none;startFill=0;endArrow=classic;endFill=1;labelPosition=center;verticalLabelPosition=top;align=center;verticalAlign=bottom;" edge="1" parent="1" source="9bxA_ej-zrlDuutFUla0-41" target="9bxA_ej-zrlDuutFUla0-44">
          <mxGeometry relative="1" as="geometry">
            <mxPoint x="480" y="270" as="sourcePoint" />
            <Array as="points">
              <mxPoint x="370" y="230" />
              <mxPoint x="370" y="230" />
            </Array>
          </mxGeometry>
        </mxCell>
        <mxCell id="9bxA_ej-zrlDuutFUla0-46" value="twitter_handle API data" style="edgeStyle=orthogonalEdgeStyle;rounded=0;orthogonalLoop=1;jettySize=auto;html=1;startArrow=none;startFill=0;endArrow=classic;endFill=1;dashed=1;labelPosition=center;verticalLabelPosition=top;align=center;verticalAlign=bottom;" edge="1" parent="1" source="9bxA_ej-zrlDuutFUla0-44" target="9bxA_ej-zrlDuutFUla0-41">
          <mxGeometry relative="1" as="geometry">
            <Array as="points">
              <mxPoint x="400" y="280" />
              <mxPoint x="400" y="280" />
            </Array>
          </mxGeometry>
        </mxCell>
        <mxCell id="9bxA_ej-zrlDuutFUla0-47" value="Write Handle ID To Database" style="edgeStyle=orthogonalEdgeStyle;rounded=0;orthogonalLoop=1;jettySize=auto;html=1;dashed=1;startArrow=none;startFill=0;endArrow=classic;endFill=1;labelPosition=center;verticalLabelPosition=top;align=center;verticalAlign=bottom;" edge="1" parent="1" source="9bxA_ej-zrlDuutFUla0-41" target="9bxA_ej-zrlDuutFUla0-21">
          <mxGeometry relative="1" as="geometry">
            <Array as="points">
              <mxPoint x="390" y="390" />
              <mxPoint x="390" y="390" />
            </Array>
          </mxGeometry>
        </mxCell>
        <mxCell id="9bxA_ej-zrlDuutFUla0-48" value="Company Added Successfully" style="edgeStyle=orthogonalEdgeStyle;rounded=0;orthogonalLoop=1;jettySize=auto;html=1;dashed=1;startArrow=none;startFill=0;endArrow=classic;endFill=1;labelPosition=center;verticalLabelPosition=top;align=center;verticalAlign=bottom;" edge="1" parent="1" source="9bxA_ej-zrlDuutFUla0-41" target="9bxA_ej-zrlDuutFUla0-13">
          <mxGeometry relative="1" as="geometry">
            <Array as="points">
              <mxPoint x="210" y="460" />
              <mxPoint x="210" y="460" />
            </Array>
          </mxGeometry>
        </mxCell>
        <mxCell id="9bxA_ej-zrlDuutFUla0-49" value="Company Added" style="edgeStyle=orthogonalEdgeStyle;rounded=0;orthogonalLoop=1;jettySize=auto;html=1;dashed=1;startArrow=none;startFill=0;endArrow=classic;endFill=1;labelPosition=center;verticalLabelPosition=top;align=center;verticalAlign=bottom;exitX=-0.2;exitY=0.945;exitDx=0;exitDy=0;exitPerimeter=0;" edge="1" parent="1" source="9bxA_ej-zrlDuutFUla0-13">
          <mxGeometry relative="1" as="geometry">
            <mxPoint x="40" y="546" as="targetPoint" />
            <Array as="points">
              <mxPoint x="40" y="546" />
              <mxPoint x="30" y="546" />
            </Array>
          </mxGeometry>
        </mxCell>
        <mxCell id="9bxA_ej-zrlDuutFUla0-50" value="Is This The Right Company (twitter summary)" style="edgeStyle=orthogonalEdgeStyle;rounded=0;orthogonalLoop=1;jettySize=auto;html=1;entryX=0.5;entryY=0.302;entryDx=0;entryDy=0;entryPerimeter=0;dashed=1;startArrow=none;startFill=0;endArrow=classic;endFill=1;labelPosition=center;verticalLabelPosition=top;align=center;verticalAlign=bottom;" edge="1" parent="1" source="9bxA_ej-zrlDuutFUla0-41" target="9bxA_ej-zrlDuutFUla0-13">
          <mxGeometry relative="1" as="geometry">
            <Array as="points">
              <mxPoint x="190" y="330" />
              <mxPoint x="190" y="330" />
            </Array>
          </mxGeometry>
        </mxCell>
      </root>
    </mxGraphModel>
  </diagram>
</mxfile>
